#!OML:ASF E:\Steps\Project 1\Capture day 1\Session 2\Subject.ASF
:FULLY-SPECIFIED
:DEGREES
183
root 16.6514 16.3349 22.0203 -156.368 -10.4606 177.859
lowerback -24.0149 -0.246878 -5.422
upperback 1.1659 1.184 -0.696766
thorax 14.8227 0.0730881 2.71936
lowerneck -5.52295 1.36496 1.61215
upperneck 16.0882 1.04616 0.410409
head 5.77436 0.410311 -0.0919179
rclavicle 8.00108e-015 -5.1684e-015
rhumerus -32.3405 -21.7549 -78.2752
rradius 26.5347
rwrist 3.23888
rhand -10.6803 -49.4296
rfingers 7.12502
rthumb 15.3284 -78.8415
lclavicle 8.00108e-015 -5.1684e-015
lhumerus -27.5216 3.98673 81.4593
lradius 25.1098
lwrist -2.49097
lhand -23.3935 -13.5115
lfingers 7.12502
lthumb 3.06305 16.4463
rfemur -24.5536 5.37028 22.2562
rtibia 11.6679
rfoot -19.2428 -6.44317
rtoes -7.5478
lfemur -32.2172 -13.3276 -19.1109
ltibia 22.1035
lfoot -7.9345 -0.193119
ltoes -44.4243
184
root 16.6551 16.3355 22.0452 -156.149 -10.8263 177.74
lowerback -23.9078 -0.22505 -5.36242
upperback 1.12522 1.1909 -0.735979
thorax 14.7133 0.0865652 2.64056
lowerneck -5.42136 1.50842 1.5944
upperneck 16.0759 1.22847 0.510422
head 5.75338 0.504294 -0.0461514
rclavicle 3.01656e-014 3.47873e-014
rhumerus -32.3049 -21.5607 -78.3424
rradius 26.5256
rwrist 3.36421
rhand -10.1046 -50.8415
rfingers 7.12502
rthumb 15.8829 -80.2101
lclavicle 3.01656e-014 3.47873e-014
lhumerus -27.5476 4.20098 81.3403
lradius 25.2176
lwrist -2.65604
lhand -23.19 -13.7232
lfingers 7.12502
lthumb 3.25962 16.2316
rfemur -24.8413 5.15968 22.141
rtibia 11.6553
rfoot -19.2209 -6.65763
rtoes -7.32425
lfemur -33.0273 -13.5429 -19.1029
ltibia 22.9487
lfoot -7.8911 -0.361328
ltoes -43.5298
185
root 16.6382 16.3351 22.0688 -155.772 -11.0885 177.536
lowerback -24.0748 -0.125588 -5.13407
upperback 1.08711 1.2768 -0.847724
thorax 14.7632 0.145458 2.41318
lowerneck -5.40633 1.52321 1.54367
upperneck 16.132 1.2307 0.634588
head 5.76723 0.510064 0.00128602
rclavicle 1.29955e-014 -3.97569e-016
rhumerus -32.3219 -21.3684 -78.3519
rradius 26.638
rwrist 3.22668
rhand -9.64932 -51.3273
rfingers 7.12502
rthumb 16.3213 -80.6605
lclavicle 1.29955e-014 -3.97569e-016
lhumerus -27.4893 4.31178 81.3465
lradius 25.175
lwrist -2.92082
lhand -23.0553 -14.2939
lfingers 7.12502
lthumb 3.38966 15.6589
rfemur -25.4932 4.88737 21.7412
rtibia 12.0392
rfoot -19.3906 -6.79247
rtoes -7.74625
lfemur -34.0032 -14.275 -19.1206
ltibia 23.8211
lfoot -7.80192 0.0414275
ltoes -43.0239
186
root 16.6386 16.3369 22.0918 -155.221 -11.1647 177.119
lowerback -24.3258 -0.0946702 -5.40217
upperback 1.01779 1.41547 -0.983815
thorax 14.8116 0.187185 2.46145
lowerneck -5.53532 1.45763 1.60645
upperneck 16.2153 1.13523 0.615718
head 5.81586 0.467511 -0.0203699
rclavicle -1.78658e-014 -1.69961e-014
rhumerus -32.355 -21.2189 -78.3957
rradius 26.84
rwrist 2.9987
rhand -9.92896 -51.125
rfingers 7.12502
rthumb 16.0521 -80.48
lclavicle -1.78658e-014 -1.69961e-014
lhumerus -27.4235 4.30535 81.3975
lradius 25.0987
lwrist -3.17536
lhand -23.4277 -14.926
lfingers 7.12502
lthumb 3.03006 15.0323
rfemur -26.4491 5.08518 21.1452
rtibia 12.7544
rfoot -19.6441 -7.32268
rtoes -7.98299
lfemur -35.1634 -14.3537 -19.5151
ltibia 24.8443
lfoot -7.51037 0.0902236
ltoes -44.4754
187
root 16.6567 16.3474 22.1028 -154.946 -11.0803 176.551
lowerback -24.3517 -0.132246 -6.12095
upperback 1.03404 1.5898 -1.12211
thorax 14.8198 0.211619 2.77501
lowerneck -5.57116 1.50267 1.76546
upperneck 16.2412 1.19952 0.492881
head 5.83266 0.500928 -0.0806517
rclavicle -1.50331e-014 3.71727e-014
rhumerus -32.401 -20.9775 -78.4802
rradius 27.0281
rwrist 2.65796
rhand -11.156 -49.7311
rfingers 7.12502
rthumb 14.8702 -79.1774
lclavicle -1.50331e-014 3.71727e-014
lhumerus -27.4092 4.14059 81.4342
lradius 25.1737
lwrist -3.00566
lhand -23.6074 -14.9519
lfingers 7.12502
lthumb 2.85655 15.0087
rfemur -27.1789 5.70051 20.4619
rtibia 13.8508
rfoot -20.1724 -8.06926
rtoes -7.36439
lfemur -35.7778 -13.9147 -20.2611
ltibia 25.6637
lfoot -7.14276 -0.325815
ltoes -45.3327
188
root 16.6611 16.3549 22.1191 -154.415 -11.5077 175.885
lowerback -24.5505 -0.293183 -6.65601
upperback 0.971807 1.54832 -1.24936
thorax 14.8551 0.150297 2.91982
lowerneck -5.38438 1.58155 1.82311
upperneck 16.1057 1.314 0.471879
head 5.75934 0.559583 -0.0903243
rclavicle 1.34677e-014 1.85864e-014
rhumerus -32.3334 -21.0976 -78.3262
rradius 26.8617
rwrist 2.69216
rhand -10.5052 -53.5888
rfingers 7.12502
rthumb 15.4971 -82.9877
lclavicle 1.34677e-014 1.85864e-014
lhumerus -27.3899 3.88039 81.5537
lradius 25.3258
lwrist -2.46254
lhand -23.5072 -14.5313
lfingers 7.12502
lthumb 2.95324 15.428
rfemur -27.1077 4.96832 19.6031
rtibia 12.5837
rfoot -19.4858 -7.91565
rtoes -5.48373
lfemur -36.9839 -14.5809 -20.6578
ltibia 26.8458
lfoot -6.84246 -0.27571
ltoes -44.6229
189
root 16.6619 16.3635 22.1213 -154.756 -11.8918 175.898
lowerback -24.1612 -0.20611 -6.49002
upperback 1.10479 1.6059 -1.22972
thorax 14.7896 0.196451 2.86416
lowerneck -5.28496 1.67163 1.76843
upperneck 16.0182 1.42705 0.620698
head 5.71404 0.623043 -0.0278367
rclavicle 1.73564e-014 -1.66979e-014
rhumerus -32.1782 -21.5534 -78.0492
rradius 26.5019
rwrist 3.14128
rhand -10.0904 -50.852
rfingers 7.12502
rthumb 15.8966 -80.2196
lclavicle 1.73564e-014 -1.66979e-014
lhumerus -27.334 3.76263 81.5939
lradius 25.6356
lwrist -1.64892
lhand -22.9504 -13.6609
lfingers 7.12502
lthumb 3.49097 16.2903
rfemur -27.2167 5.33272 19.5943
rtibia 13.7409
rfoot -20.2615 -8.4912
rtoes -4.17964
lfemur -37.1939 -14.7147 -20.653
ltibia 27.8364
lfoot -6.58283 -0.311655
ltoes -44.5128
190
root 16.6759 16.3723 22.1375 -154.812 -12.5342 175.698
lowerback -23.6977 -0.312249 -6.62133
upperback 1.10881 1.46824 -1.21627
thorax 14.538 0.136089 2.89901
lowerneck -5.2484 1.71828 1.65141
upperneck 16.0137 1.46258 0.881057
head 5.70352 0.651191 0.0751705
rclavicle 3.43028e-014 -1.86361e-014
rhumerus -32.1289 -21.818 -77.9161
rradius 26.3537
rwrist 3.53166
rhand -9.98943 -52.3634
rfingers 7.12502
rthumb 15.9938 -81.7231
lclavicle 3.43028e-014 -1.86361e-014
lhumerus -27.3725 3.62769 81.543
lradius 25.6921
lwrist -1.53715
lhand -22.6336 -13.3221
lfingers 7.12502
lthumb 3.79691 16.6238
rfemur -26.9095 5.12023 19.4919
rtibia 13.3402
rfoot -20.0698 -9.02869
rtoes -4.44991
lfemur -37.9386 -14.7481 -20.7945
ltibia 29.2804
lfoot -6.45959 -0.695819
ltoes -44.451
191
root 16.6769 16.3789 22.1566 -154.776 -13.1806 175.483
lowerback -23.412 -0.362439 -6.57964
upperback 1.12602 1.3752 -1.24296
thorax 14.405 0.105714 2.80819
lowerneck -5.21576 1.78759 1.60322
upperneck 15.9999 1.54746 0.993459
head 5.69255 0.698158 0.123656
rclavicle -1.6524e-014 -3.40916e-014
rhumerus -32.1522 -21.8783 -77.8893
rradius 26.4572
rwrist 3.64086
rhand -9.49676 -51.7322
rfingers 7.12502
rthumb 16.4682 -81.0532
lclavicle -1.6524e-014 -3.40916e-014
lhumerus -27.4219 3.53933 81.5436
lradius 25.4025
lwrist -2.17242
lhand -23.3347 -14.365
lfingers 7.12502
lthumb 3.11982 15.592
rfemur -26.8816 5.02282 19.3168
rtibia 13.4056
rfoot -20.1836 -9.62775
rtoes -3.92569
lfemur -38.8293 -14.9418 -20.9863
ltibia 31.0082
lfoot -6.4955 -1.12293
ltoes -43.8802
192
root 16.6786 16.3848 22.1629 -154.908 -13.4514 175.461
lowerback -23.2943 -0.231939 -6.46198
upperback 1.25118 1.52613 -1.25627
thorax 14.4752 0.183679 2.77765
lowerneck -5.18561 1.81077 1.58397
upperneck 16.0068 1.56748 1.08615
head 5.68866 0.71347 0.157011
rclavicle -3.79384e-014 2.82026e-014
rhumerus -32.198 -21.9748 -77.7908
rradius 26.5439
rwrist 3.53821
rhand -9.43264 -51.8981
rfingers 7.12502
rthumb 16.5299 -81.214
lclavicle -3.79384e-014 2.82026e-014
lhumerus -27.4232 3.44613 81.6095
lradius 25.3844
lwrist -2.12128
lhand -23.877 -16.3997
lfingers 7.12502
lthumb 2.59611 13.5643
rfemur -26.8607 5.32432 19.2391
rtibia 13.6447
rfoot -20.3479 -10.1867
rtoes -4.20402
lfemur -39.5545 -14.8805 -20.9803
ltibia 32.6248
lfoot -6.4572 -1.43027
ltoes -45.6049
193
root 16.6778 16.3841 22.1934 -154.446 -13.7461 175.463
lowerback -23.4924 -0.144508 -6.23092
upperback 1.17142 1.58366 -1.25117
thorax 14.4931 0.225966 2.67452
lowerneck -5.12858 1.79352 1.56955
upperneck 16.0405 1.53597 1.12784
head 5.68887 0.698952 0.170023
rclavicle 4.0316e-014 8.59744e-015
rhumerus -32.0334 -21.7782 -77.8018
rradius 26.5065
rwrist 3.46688
rhand -8.56484 -53.0209
rfingers 7.12502
rthumb 17.3653 -82.2651
lclavicle 4.0316e-014 8.59744e-015
lhumerus -27.4627 3.1294 81.7721
lradius 25.8165
lwrist -1.78935
lhand -23.9549 -16.1809
lfingers 7.12502
lthumb 2.52095 13.7839
rfemur -27.6923 4.85406 19.2879
rtibia 14.0739
rfoot -20.4261 -10.0336
rtoes -4.70719
lfemur -41.2783 -14.6792 -20.9152
ltibia 34.6814
lfoot -6.35062 -1.85771
ltoes -43.1997
194
root 16.6765 16.3862 22.2107 -154.375 -14.1913 175.361
lowerback -23.3826 -0.155168 -6.1443
upperback 1.21888 1.5403 -1.20942
thorax 14.4912 0.213504 2.65703
lowerneck -5.15505 1.88909 1.48097
upperneck 16.0102 1.67668 1.17071
head 5.68276 0.76812 0.207489
rclavicle -3.94463e-014 4.96962e-017
rhumerus -31.8172 -21.513 -77.809
rradius 26.4592
rwrist 3.42034
rhand -7.74547 -54.3499
rfingers 7.12502
rthumb 18.1537 -83.5228
lclavicle -3.94463e-014 4.96962e-017
lhumerus -27.5523 2.91092 81.889
lradius 25.9274
lwrist -1.40356
lhand -23.6367 -15.2302
lfingers 7.12502
lthumb 2.82826 14.7308
rfemur -27.8052 4.53915 19.2279
rtibia 14.1934
rfoot -20.4264 -10.0593
rtoes -3.39045
lfemur -42.4852 -14.4885 -21.062
ltibia 36.9106
lfoot -6.4235 -2.50698
ltoes -42.5967
